<svg xmlns="http://www.w3.org/2000/svg" width="138.135" height="32.495" viewBox="0 0 138.135 32.495"><g transform="translate(-142.865 -49.064)"><path d="M187.236,81.559a9.43,9.43,0,0,1-4.948-1.4,10.627,10.627,0,0,1-3.683-3.724,9.646,9.646,0,0,1-1.379-4.966,9.808,9.808,0,0,1,1.359-5.113A9.573,9.573,0,0,1,182.3,62.81a10.86,10.86,0,0,1,5.224-1.271,9.734,9.734,0,0,1,7.507,3.475l.186.208L182.326,77.948a9.706,9.706,0,0,0,2.3,1.377,7.388,7.388,0,0,0,2.772.494,7.805,7.805,0,0,0,3.929-1.073,9.2,9.2,0,0,0,3.112-2.953l.54-.818v3.192l-.076.084a9.761,9.761,0,0,1-3.439,2.524,10.891,10.891,0,0,1-4.231.784m.247-18.279a8.764,8.764,0,0,0-4.323,1.054,7.763,7.763,0,0,0-2.957,2.877,8.447,8.447,0,0,0,.911,9.553l11.617-11.539a8.874,8.874,0,0,0-2.312-1.452,7.891,7.891,0,0,0-2.936-.493" fill="#fff"/><path d="M205.309,81.436a7.544,7.544,0,0,1-3.683-.921,6.954,6.954,0,0,1-2.663-2.6,7.229,7.229,0,0,1-.988-3.731V49.6h1.906V74.184A5.548,5.548,0,0,0,200.6,77a5.32,5.32,0,0,0,1.971,1.972,5.389,5.389,0,0,0,2.735.722h.294v1.741Z" fill="#fff"/><path d="M216.507,81.559a9.43,9.43,0,0,1-4.949-1.4,10.615,10.615,0,0,1-3.682-3.724,9.637,9.637,0,0,1-1.38-4.966,9.809,9.809,0,0,1,1.36-5.113,9.559,9.559,0,0,1,3.715-3.545,10.853,10.853,0,0,1,5.223-1.271,9.732,9.732,0,0,1,7.507,3.475l.186.208L211.6,77.948a9.7,9.7,0,0,0,2.3,1.377,7.388,7.388,0,0,0,2.772.494,7.805,7.805,0,0,0,3.929-1.073,9.2,9.2,0,0,0,3.112-2.953l.54-.818v3.192l-.075.084a9.764,9.764,0,0,1-3.44,2.524,10.886,10.886,0,0,1-4.23.784m.247-18.279a8.768,8.768,0,0,0-4.324,1.054,7.753,7.753,0,0,0-2.956,2.877,8.444,8.444,0,0,0,.91,9.553L222,65.225a8.878,8.878,0,0,0-2.313-1.452,7.889,7.889,0,0,0-2.935-.493" fill="#fff"/><path d="M235.5,63.239a5.479,5.479,0,0,1,4.328,1.753,7.361,7.361,0,0,1,1.553,4.993v11.08h1.906V69.985a8.873,8.873,0,0,0-2.075-6.231,7.329,7.329,0,0,0-5.63-2.256h-.25a7.329,7.329,0,0,0-5.63,2.256,8.877,8.877,0,0,0-2.074,6.231v11.08h1.9V69.985a7.361,7.361,0,0,1,1.553-4.993,5.48,5.48,0,0,1,4.329-1.753Z" fill="#fff"/><path d="M274.983,81.519a8.843,8.843,0,0,1-3.618-.7,5,5,0,0,1-2.314-1.865l-.043-.071V76.613l.563-.118a5.373,5.373,0,0,0,2.027,2.483,6.2,6.2,0,0,0,3.3.8,4.044,4.044,0,0,0,3.043-1.168,4.154,4.154,0,0,0,1.15-3.026,4.006,4.006,0,0,0-.64-2.437,7.823,7.823,0,0,0-2.182-1.8l-1.559-.9c-1.127-.686-1.985-1.237-2.556-1.64a5.313,5.313,0,0,1-1.414-1.439,3.517,3.517,0,0,1-.541-1.951,3.59,3.59,0,0,1,1.256-2.858,4.759,4.759,0,0,1,3.2-1.059,6.936,6.936,0,0,1,3.952,1.08l.13.087V65.51l-.529-.7a4.005,4.005,0,0,0-3.429-1.572,3.052,3.052,0,0,0-1.958.6,1.772,1.772,0,0,0-.713,1.458,2.308,2.308,0,0,0,.439,1.412,4.837,4.837,0,0,0,1.3,1.182c.582.38,1.567.958,2.927,1.719a10.839,10.839,0,0,1,3.175,2.524A5.444,5.444,0,0,1,281,75.584a5.621,5.621,0,0,1-1.762,4.312,6.059,6.059,0,0,1-4.255,1.623" fill="#fff"/><path d="M264.356,65.659V65.7a7.446,7.446,0,0,0-.5-.7,9.467,9.467,0,0,0-2.639-2.144,10.184,10.184,0,0,0-1.813-.841l-.215-.069c-.108-.034-.217-.067-.326-.1-.166-.044-.332-.085-.5-.121-.039-.009-.078-.019-.118-.027-.165-.034-.332-.061-.5-.086-.063-.009-.125-.021-.187-.029-.116-.015-.232-.024-.348-.035s-.234-.024-.353-.031c-.078-.005-.157-.005-.235-.008-.136-.005-.272-.011-.41-.011a9.894,9.894,0,0,0-5.009,1.356,10.126,10.126,0,0,0-3.687,3.666,9.834,9.834,0,0,0,0,9.973,10.118,10.118,0,0,0,3.687,3.666,9.983,9.983,0,0,0,10.157-.063,9.013,9.013,0,0,0,2.994-2.82v3.787h1.9V71.508a9.721,9.721,0,0,0-1.357-4.986c-.18-.306-.36-.592-.548-.863m-1.01,9.963a8.467,8.467,0,0,1-2.965,3.025,7.7,7.7,0,0,1-4.047,1.131,7.9,7.9,0,0,1-4.09-1.133,8.677,8.677,0,0,1-3.047-3.027,7.8,7.8,0,0,1-1.132-4.069,7.915,7.915,0,0,1,1.132-4.09,8.872,8.872,0,0,1,3.029-3.069,7.783,7.783,0,0,1,8.114-.02,8.578,8.578,0,0,1,2.986,3.046,8.183,8.183,0,0,1,.02,8.206" fill="#fff"/><path d="M156.325,81.559a13.459,13.459,0,0,1-9.518-22.977l9.518-9.518,4.564,4.564a9.951,9.951,0,0,1,0,14.082l-2.477,2.477a2.951,2.951,0,0,1-4.174-4.174l2.477-2.477a4.051,4.051,0,0,0,0-5.734.549.549,0,0,0-.779,0l-4.955,4.954a7.558,7.558,0,1,0,10.688,10.688c3.672-3.671,6.013-7.936,6.265-11.409.018-.247.024-.488.02-.723a13.459,13.459,0,0,1-11.629,20.247" fill="#fff"/></g></svg>